<?xml version="1.0" encoding="utf-8"?>
<!-- Generator: Adobe Illustrator 24.0.2, SVG Export Plug-In . SVG Version: 6.00 Build 0)  -->
<svg version="1.1" xmlns="http://www.w3.org/2000/svg" xmlns:xlink="http://www.w3.org/1999/xlink" x="0px" y="0px" width="50px"
	 height="50px" viewBox="0 0 50 50" style="enable-background:new 0 0 50 50;" xml:space="preserve">
<style type="text/css">
	.st0{fill:#C92D2D;}
	.st1{fill:#FFFFFF;}
</style>
<g id="Layer_1">
	<circle class="st0" cx="25" cy="25" r="24.5"/>
</g>
<g id="Layer_2">
	<g>
		<path class="st1" d="M14,29.6c-0.2-0.1-0.3-0.1-0.5-0.2c-1-0.4-1.6-1.5-1.5-2.5c0.1-1.1,1-2,2.1-2c0.9,0,1.9,0,2.8,0.1
			c0.1,0,0.3,0.1,0.4,0.1c0-0.1,0-0.2,0-0.3c0-1.6,0-3.2,0-4.8c-0.1-1.9,0.9-2.8,2.3-3.4c1.4-0.6,2.9-0.9,4.5-0.9
			c1.8-0.1,3.5,0.1,5.2,0.6c0.9,0.3,1.7,0.6,2.4,1.3c0.6,0.6,0.9,1.3,0.9,2.2c0,1.7,0,3.4,0,5.1c0,0.1,0,0.2,0,0.3
			c1.1-0.3,2.1-0.2,3.2-0.2c1.1,0.1,2,1,2.1,2c0.2,1.6-0.8,2.4-1.7,2.7c-0.1,0-0.2,0.1-0.3,0.1c0,1.3,0,2.6,0,3.9c0,2.5,0,5.1,0,7.6
			c0,0.6-0.2,0.7-0.8,0.8c-1.1,0-2.3,0-3.4,0c-0.6,0-0.8-0.2-0.9-0.7c-0.1-0.6-0.3-1.1-0.5-1.7c-0.3-0.7-0.8-1-1.6-1
			c-2.5,0-5,0-7.5,0c-0.8,0-1.3,0.3-1.6,1c-0.2,0.5-0.4,1.1-0.5,1.6c-0.1,0.5-0.4,0.8-0.9,0.8c-1.1,0-2.3,0-3.4,0
			c-0.6,0-0.8-0.2-0.8-0.8c0-3.7,0-7.4,0-11.1C14,29.8,14,29.7,14,29.6z M31.1,30c0-3.5,0-6.9,0-10.3c0-0.8-0.4-1.4-1.1-1.7
			c-1.3-0.7-2.8-0.9-4.3-0.9c-0.9-0.1-1.9,0-2.8,0.1c-1,0.1-2,0.3-2.9,0.7c-0.8,0.4-1.2,1-1.2,1.8c0,3.3,0,6.6,0,9.8
			c0,0.1,0,0.2,0,0.4c0.6-0.4,1.2-0.3,1.9-0.3c2.8,0,5.7,0,8.5,0C29.9,29.6,30.5,29.6,31.1,30z M17.4,40.4c0-0.1,0-0.2,0-0.3
			c0-3.3,0-6.7,0-10c0-0.8,0-1.6,0-2.4c0-0.6-0.4-1.3-1.2-1.2c-0.6,0-1.2,0-1.9,0c-0.4,0-0.6,0.2-0.7,0.5c-0.2,0.6,0.2,1.2,0.9,1.2
			c0.8,0,1.1,0.4,1.1,1.1c0,3.6,0,7.2,0,10.8c0,0.1,0,0.2,0,0.3C16.2,40.4,16.8,40.4,17.4,40.4z M34.5,40.4c0-1,0-1.9,0-2.9
			c0-2.7,0-5.5,0-8.2c0-0.8,0.3-1.1,1.1-1.1c0.2,0,0.4-0.1,0.5-0.2c0.3-0.2,0.5-0.6,0.4-1.1c-0.1-0.3-0.4-0.5-0.8-0.5
			c-0.6,0-1.3,0-1.9,0c-0.4,0-0.7,0.1-0.9,0.5c-0.1,0.2-0.2,0.5-0.2,0.8c0,4.1,0,8.3,0,12.4c0,0.1,0,0.2,0,0.3
			C33.3,40.4,33.9,40.4,34.5,40.4z M31.1,33.4c0-0.4,0-0.7,0-1.1c-0.1-0.8-0.5-1.2-1.3-1.2c-2.6,0-5.2,0-7.8,0c-0.7,0-1.3,0-2,0
			c-0.6,0-1.1,0.3-1.1,0.9c-0.1,0.4,0,0.9,0,1.3C23,33.4,27,33.4,31.1,33.4z M18.9,35c0,1,0,1.9,0,2.9c0.8-0.9,1.9-1,2.9-1
			c2.2,0,4.5,0,6.7,0c1,0,1.8,0.2,2.5,0.9c0,0,0,0,0.1,0c0-0.9,0-1.9,0-2.9C27,35,23,35,18.9,35z"/>
		<path class="st1" d="M24.5,10.1c-0.6-0.5-0.7-1.2-0.3-1.6C24.6,8,25.3,8,25.7,8.4c0.5,0.5,0.4,1.1-0.2,1.7c0,0,0,0.1,0,0.1
			c0.7,0.9,1.4,1.7,2.1,2.6c0.9-0.5,1.8-1.1,2.7-1.6c0-0.3-0.1-0.6-0.1-0.9c0.1-0.5,0.5-0.8,1-0.8c0.4,0,0.8,0.4,0.9,0.9
			c0.1,0.4-0.2,0.9-0.7,1c-0.2,0.1-0.2,0.1-0.3,0.3c-0.3,1.2-0.6,2.3-0.9,3.5c-3.5-1.1-7-1.1-10.6,0c-0.2-0.7-0.4-1.5-0.5-2.2
			c-0.1-0.4-0.2-0.9-0.3-1.3c0-0.2-0.1-0.3-0.3-0.3c-0.5-0.2-0.7-0.6-0.6-1.1c0.1-0.4,0.4-0.7,0.8-0.8c0.5,0,1,0.2,1.1,0.7
			c0.1,0.3,0,0.6,0,1c0.8,0.5,1.7,1,2.6,1.6C23.1,11.9,23.8,11,24.5,10.1z"/>
	</g>
</g>
</svg>
