<?xml version="1.0" encoding="utf-8"?>
<!-- Generator: Adobe Illustrator 24.0.2, SVG Export Plug-In . SVG Version: 6.00 Build 0)  -->
<svg version="1.1" xmlns="http://www.w3.org/2000/svg" xmlns:xlink="http://www.w3.org/1999/xlink" x="0px" y="0px" width="50px"
	 height="50px" viewBox="0 0 50 50" style="enable-background:new 0 0 50 50;" xml:space="preserve">
<style type="text/css">
	.st0{fill:#C92D2D;}
	.st1{fill:#FFFFFF;}
</style>
<g id="Layer_1">
	<g>
		<rect class="st0" width="50" height="50"/>
	</g>
</g>
<g id="Layer_2">
	<g>
		<path class="st1" d="M10.7,31c-0.2-0.1-0.4-0.1-0.7-0.2c-1.3-0.5-2.1-1.9-2-3.3c0.2-1.4,1.3-2.6,2.8-2.7c1.2-0.1,2.4,0,3.7,0.1
			c0.2,0,0.3,0.1,0.5,0.2c0-0.2,0-0.3,0-0.4c0-2.1,0.1-4.2,0-6.3c-0.1-2.4,1.2-3.7,3-4.5c1.9-0.8,3.8-1.1,5.8-1.2
			c2.3-0.1,4.6,0.1,6.8,0.8c1.1,0.3,2.2,0.8,3.1,1.7c0.8,0.8,1.2,1.7,1.2,2.8c0,2.2,0,4.5,0,6.7c0,0.1,0,0.3,0,0.4
			c1.4-0.4,2.8-0.3,4.1-0.2c1.4,0.1,2.6,1.3,2.8,2.5c0.2,2-1.1,3.2-2.2,3.5c-0.1,0-0.3,0.1-0.4,0.1c0,1.7,0,3.4,0,5.1
			c0,3.3,0,6.6,0,9.9c0,0.7-0.3,1-1,1c-1.5,0-3,0-4.5,0c-0.7,0-1-0.3-1.2-1c-0.2-0.7-0.4-1.5-0.7-2.2c-0.4-0.9-1.1-1.3-2.1-1.3
			c-3.2,0-6.5,0-9.7,0c-1,0-1.7,0.4-2.1,1.3c-0.3,0.7-0.5,1.4-0.6,2.1c-0.2,0.7-0.5,1-1.2,1c-1.5,0-3,0-4.5,0c-0.8,0-1-0.3-1-1
			c0-4.8,0-9.7,0-14.5C10.7,31.3,10.7,31.2,10.7,31z M33,31.5c0-4.5,0-8.9,0-13.4c0-1-0.5-1.8-1.4-2.2c-1.7-0.9-3.6-1.1-5.5-1.2
			c-1.2-0.1-2.5,0-3.7,0.1c-1.3,0.1-2.6,0.4-3.8,1c-1,0.5-1.6,1.2-1.6,2.4c0,4.3,0,8.5,0,12.8c0,0.1,0,0.3,0,0.5
			c0.8-0.5,1.6-0.4,2.4-0.4c3.7,0,7.4,0,11,0C31.4,31,32.2,31,33,31.5z M15.1,45c0-0.2,0-0.3,0-0.4c0-4.3,0-8.7,0-13
			c0-1.1,0-2.1,0-3.2c0-0.8-0.6-1.7-1.6-1.6c-0.8,0-1.6,0-2.4,0c-0.5,0-0.8,0.2-0.9,0.7c-0.2,0.8,0.3,1.5,1.2,1.6
			c1,0,1.4,0.5,1.4,1.5c0,4.7,0,9.3,0,14c0,0.1,0,0.3,0,0.4C13.5,45,14.3,45,15.1,45z M37.3,45c0-1.3,0-2.5,0-3.8
			c0-3.6,0-7.1,0-10.7c0-1,0.4-1.4,1.4-1.4c0.2,0,0.5-0.1,0.7-0.2c0.4-0.2,0.6-0.8,0.5-1.4c-0.1-0.5-0.5-0.7-1-0.7
			c-0.8,0-1.6,0-2.5,0c-0.5,0-0.9,0.2-1.2,0.6c-0.2,0.3-0.3,0.7-0.3,1c0,5.4,0,10.8,0,16.2c0,0.1,0,0.2,0,0.4
			C35.8,45,36.5,45,37.3,45z M33,36c0-0.5,0-0.9,0-1.4c-0.1-1-0.6-1.5-1.6-1.5c-3.4,0-6.8,0-10.1,0c-0.9,0-1.7,0-2.6,0
			c-0.8,0-1.4,0.4-1.5,1.2c-0.1,0.6,0,1.1,0,1.7C22.4,36,27.7,36,33,36z M17.1,38c0,1.3,0,2.5,0,3.8c1.1-1.1,2.4-1.3,3.8-1.3
			c2.9,0,5.8,0,8.7,0c1.2,0,2.3,0.3,3.2,1.2c0,0,0,0,0.1,0c0-1.2,0-2.5,0-3.7C27.7,38,22.4,38,17.1,38z"/>
		<path class="st1" d="M24.4,5.6c-0.8-0.6-1-1.5-0.4-2.1c0.5-0.6,1.4-0.7,2-0.1c0.7,0.6,0.6,1.5-0.3,2.2c0,0,0,0.1,0,0.1
			c0.9,1.1,1.8,2.2,2.7,3.4c1.2-0.7,2.4-1.4,3.5-2.1c0-0.4-0.2-0.8-0.1-1.2c0.1-0.7,0.7-1,1.4-1c0.6,0,1.1,0.5,1.1,1.1
			c0.1,0.6-0.3,1.1-0.9,1.3c-0.2,0.1-0.3,0.2-0.4,0.4c-0.4,1.5-0.8,3-1.2,4.6c-4.6-1.5-9.2-1.5-13.8,0c-0.2-0.9-0.5-1.9-0.7-2.9
			c-0.1-0.6-0.3-1.1-0.4-1.7c-0.1-0.3-0.2-0.4-0.4-0.4c-0.6-0.2-0.9-0.7-0.8-1.4c0.1-0.5,0.6-1,1.1-1c0.7-0.1,1.2,0.3,1.4,0.9
			c0.1,0.4,0,0.8-0.1,1.3c1,0.6,2.2,1.3,3.4,2C22.5,8,23.4,6.8,24.4,5.6z"/>
	</g>
</g>
</svg>
